<svg width="72" height="72" viewBox="0 0 72 72" fill="none" xmlns="http://www.w3.org/2000/svg">
<rect x="1.5" y="1.5" width="69" height="69" rx="34.5" stroke="#1B2E4C" stroke-width="3"/>
<path d="M41.02 30.0663H41.0883C41.2932 30.1346 41.4299 30.0663 41.6348 30.0663C42.318 30.0663 43.0695 30.0663 43.7526 30.0663C43.9576 30.0663 43.9575 30.0663 43.9575 29.8613C43.9575 28.495 43.9575 27.1287 43.9575 25.8307C43.9575 25.7624 43.9575 25.7624 43.9575 25.6941C43.9575 25.6258 43.8892 25.5575 43.8209 25.5575C43.616 25.5575 43.4793 25.4891 43.2744 25.4891C42.7962 25.4208 42.318 25.3525 41.8398 25.2842C41.7031 25.2842 41.5665 25.2159 41.4299 25.2842C41.3616 25.2842 41.3616 25.2842 41.2932 25.2842C41.2932 25.2159 41.2249 25.2159 41.2249 25.2159C40.8833 25.2159 40.6101 25.2159 40.2685 25.2159C40.2002 25.2159 40.1319 25.2159 40.0636 25.2159C39.9953 25.2159 39.8586 25.2159 39.7903 25.2159C39.5853 25.1476 39.3804 25.1476 39.1071 25.2159C38.6289 25.2842 38.219 25.3525 37.7408 25.4208C37.1943 25.5575 36.7161 25.7624 36.2379 26.0357C35.828 26.2406 35.4864 26.5139 35.1448 26.7871C35.0082 26.9238 34.8716 26.9921 34.8033 27.197C34.7349 27.197 34.6666 27.2653 34.5983 27.3337C34.3934 27.5386 34.2567 27.8119 34.1201 28.0851C33.9835 28.3584 33.8468 28.6317 33.7102 28.9049C33.5053 29.4514 33.3003 29.998 33.232 30.5445C33.1637 30.9544 33.0954 31.4326 33.0954 31.8425C33.0954 33.2088 33.0954 34.5751 33.0954 35.9414C33.0954 36.1464 33.0954 36.1464 32.8904 36.1464C32.7538 36.1464 32.6855 36.1464 32.5488 36.1464C31.2508 36.1464 30.0212 36.1464 28.7232 36.1464C28.5182 36.1464 28.5182 36.1464 28.5182 36.3513C28.5182 37.9226 28.5182 39.5622 28.5182 41.1334C28.5182 41.3384 28.5182 41.3384 28.7232 41.3384C30.0895 41.3384 31.4558 41.3384 32.8221 41.3384C33.0271 41.3384 33.027 41.3384 33.027 41.5433C33.027 45.4373 33.027 49.3996 33.027 53.2936C33.027 53.4302 33.027 53.4985 33.027 53.6352C33.027 53.7718 32.9587 53.7718 32.8904 53.7718C32.6855 53.7718 32.4805 53.7035 32.3439 53.7035C31.729 53.5669 31.1142 53.4302 30.5677 53.2253C30.3627 53.157 30.1578 53.0887 29.9528 53.0203V52.952C29.7479 52.8837 29.543 52.8154 29.338 52.6788C29.0647 52.6104 28.7915 52.4738 28.5182 52.3372C28.3816 52.2689 28.245 52.1322 28.04 52.1322C28.04 52.0639 27.9717 52.0639 27.9034 51.9956C27.7667 51.9273 27.6301 51.859 27.5618 51.7907C27.0836 51.5174 26.5371 51.2441 26.1272 50.9026C25.7173 50.561 25.2391 50.2877 24.8292 49.9461C24.351 49.6046 23.9411 49.1947 23.5312 48.7848C23.4629 48.6481 23.3262 48.5798 23.2579 48.5115C23.1213 48.3749 23.053 48.2382 22.848 48.1699C22.848 48.1016 22.848 48.0333 22.7797 48.0333C22.5748 47.8284 22.4381 47.6234 22.2332 47.4185C21.9599 47.0769 21.6867 46.7353 21.4817 46.3937C21.2768 46.0521 21.0718 45.7789 20.8669 45.4373C20.5936 44.9591 20.3203 44.4809 20.0471 44.0027C19.8421 43.5928 19.6372 43.1829 19.5006 42.773C19.2273 42.0898 18.954 41.4067 18.8174 40.6552C18.7491 40.2453 18.6124 39.8354 18.5441 39.4255C18.4758 39.0839 18.4075 38.6741 18.4075 38.3325C18.3392 37.7176 18.2709 37.1028 18.2709 36.488C18.2709 35.5999 18.2709 34.7117 18.4075 33.892C18.4758 33.3454 18.5441 32.7989 18.6808 32.2524C18.7491 31.7742 18.954 31.296 19.0907 30.7494C19.2273 30.2712 19.3639 29.793 19.5689 29.3148C19.8421 28.7 20.1154 28.0851 20.3887 27.4703C20.7302 26.8554 21.0718 26.3089 21.4817 25.7624C21.755 25.4208 21.9599 25.0792 22.2332 24.7377C22.5064 24.3961 22.848 24.0545 23.1213 23.7129C23.7361 23.0298 24.4193 22.4149 25.1707 21.8684C25.2391 21.8001 25.3074 21.8001 25.3074 21.7318C25.3757 21.7318 25.444 21.6635 25.5123 21.6635C25.7173 21.5268 25.9222 21.3219 26.1272 21.1853C26.4688 20.9803 26.8103 20.707 27.1519 20.5704C27.6301 20.2972 28.04 20.0239 28.5865 19.8189C29.338 19.4774 30.0895 19.2041 30.8409 18.9308C31.2508 18.7942 31.5924 18.7259 32.0023 18.5893C32.4122 18.5209 32.7538 18.4526 33.1637 18.3843C33.4369 18.316 33.7785 18.316 34.0518 18.2477C34.3934 18.1794 34.7349 18.1794 35.0765 18.1111C35.8963 18.1111 36.6478 18.0427 37.4676 18.1111C37.8091 18.1111 38.1507 18.1794 38.4923 18.1794C39.0388 18.2477 39.5853 18.3843 40.2002 18.4526C40.8833 18.5893 41.5665 18.7942 42.2497 19.0675C42.7962 19.2724 43.411 19.5457 43.9575 19.8189C44.5724 20.1605 45.1872 20.4338 45.8021 20.8437C46.0753 20.9803 46.2803 21.1169 46.5536 21.3219C47.0318 21.6635 47.51 22.0734 47.9199 22.4149C48.2614 22.6882 48.603 23.0298 48.9446 23.3714C49.2179 23.6446 49.4911 23.9179 49.6961 24.1911C49.9693 24.5327 50.2426 24.806 50.4475 25.1476C50.7891 25.6258 51.1307 26.104 51.4039 26.5822C51.7455 27.1287 52.0188 27.6069 52.2921 28.1534C52.4287 28.495 52.6336 28.8366 52.702 29.1782C52.8386 29.5881 52.9752 29.998 53.1118 30.4079C53.3168 31.0227 53.4534 31.6375 53.5901 32.2524C53.7267 32.7989 53.795 33.2771 53.8633 33.8236C53.9316 34.3019 54 34.7801 54 35.19C54 36.0097 53.9999 36.8978 53.9316 37.7176C53.8633 38.0592 53.8633 38.4691 53.795 38.8107C53.7267 39.2206 53.6584 39.5622 53.5217 39.9721C53.3851 40.5869 53.1802 41.1334 52.9752 41.7483C52.7703 42.2948 52.5653 42.9096 52.2921 43.4562C52.0871 43.866 51.8822 44.2759 51.6772 44.6858C51.5406 44.9591 51.3356 45.2324 51.1307 45.5056C50.9257 45.7789 50.7891 46.0521 50.5842 46.2571C50.3792 46.5304 50.1743 46.8036 49.9693 47.0769C49.6961 47.4185 49.3545 47.8284 49.0812 48.1016C48.8763 48.3066 48.6713 48.5798 48.3981 48.7848C48.3297 48.8531 48.3297 48.8531 48.3297 48.9214C48.1248 48.9897 47.9199 49.1947 47.8515 49.3996C47.7832 49.3996 47.7832 49.3996 47.7149 49.4679C47.5783 49.6046 47.3733 49.7412 47.2367 49.8778C46.9634 50.0828 46.6902 50.356 46.4169 50.561C46.007 50.8342 45.5971 51.1075 45.1872 51.3124C44.8457 51.5174 44.5041 51.7223 44.1625 51.859C43.7526 52.0639 43.2744 52.2689 42.7962 52.4738C42.4546 52.6104 42.113 52.7471 41.7715 52.8837C41.2249 53.0203 40.7467 53.2253 40.2002 53.3619C39.8586 53.4302 39.4487 53.4986 39.1071 53.5669C38.9705 53.5669 38.9705 53.4985 38.9705 53.4302C38.9705 49.3996 38.9705 45.369 38.9705 41.4067C38.9705 41.2701 39.0388 41.2017 39.1755 41.2017C40.4051 41.2017 41.7031 41.2017 42.9328 41.2017C43.0694 41.2017 43.1378 41.2017 43.2061 40.9968C43.2744 40.5186 43.3427 40.0404 43.411 39.6305C43.4793 39.1523 43.5477 38.7424 43.616 38.2642C43.6843 37.786 43.7526 37.3077 43.8209 36.7612C43.8892 36.5563 43.8892 36.283 43.9575 36.0781C43.9575 35.9414 43.9575 35.9414 43.8892 35.8731C43.8209 35.8731 43.7526 35.8731 43.7526 35.8731C42.318 35.8731 40.8834 35.8731 39.3804 35.8731C39.0388 35.8731 39.0388 35.8731 39.0388 35.5315C39.0388 34.5751 39.0388 33.5504 39.0388 32.594C39.0388 32.1841 39.1071 31.7742 39.2438 31.3643C39.3804 31.091 39.517 30.7494 39.7903 30.5445C39.9952 30.4762 40.4051 30.2029 41.02 30.0663C41.02 30.1346 41.02 30.1346 41.02 30.0663Z" fill="#1977F2"/>
<path d="M48.1932 49.263C48.1932 49.1946 48.1932 49.1263 48.2615 49.1263C48.5348 48.9214 48.7397 48.6481 48.9447 48.4432C49.2862 48.1016 49.5595 47.76 49.8328 47.4184C50.0377 47.1452 50.2426 46.8719 50.4476 46.5986C50.6525 46.3254 50.7892 46.0521 50.9941 45.8472C51.1991 45.5739 51.3357 45.3006 51.5406 45.0274C51.7456 44.6175 51.9505 44.2076 52.1555 43.7977C52.4287 43.2512 52.6337 42.7047 52.8386 42.0898C53.0436 41.475 53.2485 40.9284 53.3852 40.3136C53.4535 39.9037 53.5901 39.5621 53.6584 39.1522C53.7267 38.8107 53.7267 38.4008 53.7951 38.0592C53.8634 37.2394 53.8634 36.3513 53.8634 35.5315C53.8634 35.0533 53.7951 34.5751 53.7268 34.1652C53.6584 33.6187 53.5901 33.0721 53.4535 32.5939C53.3168 31.9791 53.1802 31.3643 52.9753 30.7494C52.8386 30.3395 52.702 29.9296 52.5654 29.5197C52.4287 29.1782 52.2921 28.8366 52.1555 28.495C51.8822 27.9485 51.609 27.402 51.2674 26.9237C50.9258 26.4455 50.6525 25.9673 50.311 25.4891C50.0377 25.1475 49.8328 24.8743 49.5595 24.5327C49.2862 24.2594 49.0813 23.9862 48.808 23.7129C48.4664 23.3713 48.1932 23.0981 47.7833 22.7565C47.3051 22.3466 46.8952 22.005 46.417 21.6634C46.212 21.4585 45.9388 21.3219 45.6655 21.1852C45.0507 20.7753 44.4358 20.5021 43.821 20.1605C43.2745 19.8872 42.7279 19.614 42.1131 19.409C41.4299 19.1358 40.7468 18.9308 40.0636 18.7942C39.5171 18.6576 38.9706 18.5892 38.3557 18.5209C38.0142 18.4526 37.6726 18.4526 37.331 18.4526C36.5112 18.3843 35.7597 18.4526 34.9399 18.4526C34.5984 18.4526 34.2568 18.5209 33.9152 18.5892C33.6419 18.6575 33.3004 18.6576 33.0271 18.7259C32.6172 18.7942 32.2756 18.8625 31.8657 18.9308C31.4558 18.9991 31.1143 19.1358 30.7044 19.2724C29.9529 19.4773 29.2014 19.8189 28.45 20.1605C27.9717 20.3654 27.4935 20.6387 27.0153 20.912C26.6738 21.1169 26.3322 21.3219 25.9906 21.5268C25.7857 21.6634 25.5807 21.8001 25.3758 22.005C25.3074 22.0733 25.2391 22.1416 25.1708 22.0733C25.2391 21.9367 25.4441 21.8684 25.5807 21.8001C27.3569 20.5704 29.2697 19.614 31.3192 19.0674C33.6419 18.4526 36.033 18.316 38.424 18.5892C41.3616 18.9991 44.0259 20.0239 46.417 21.7318C47.8516 22.7565 49.0813 23.9862 50.1743 25.3525C51.1308 26.5822 51.8822 27.8802 52.4971 29.2465C53.2485 30.9544 53.6584 32.7306 53.8634 34.5751C54.0683 36.7612 53.9317 38.879 53.3169 40.9968C52.7703 43.1829 51.8139 45.164 50.4476 46.9402C49.8328 47.8283 49.0813 48.6481 48.3298 49.3996C48.2615 49.263 48.2615 49.263 48.1932 49.263Z" fill="#4581CD"/>
<path d="M41.0202 30.0663C41.0202 30.1346 41.0202 30.1346 41.0202 30.0663C40.4053 30.2029 39.9954 30.4079 39.5855 30.7494C39.3123 30.9544 39.1756 31.2276 39.039 31.5692C38.9024 31.9791 38.8341 32.389 38.8341 32.7989C38.8341 33.7553 38.8341 34.7801 38.8341 35.7365C38.8341 36.0781 38.8341 36.0781 39.1756 36.0781C40.6103 36.0781 42.0449 36.0781 43.5478 36.0781C43.6161 36.0781 43.6845 36.0781 43.6845 36.0781C43.7528 36.0781 43.8211 36.1464 43.7528 36.283C43.6845 36.488 43.6845 36.7612 43.6162 36.9662C43.5478 37.4444 43.4795 37.9226 43.4112 38.4691C43.3429 38.879 43.2746 39.3572 43.2063 39.8354C43.1379 40.3136 43.0696 40.7918 43.0013 41.2017C43.0013 41.4067 42.933 41.4067 42.7281 41.4067C41.4984 41.4067 40.2004 41.4067 38.9707 41.4067C38.8341 41.4067 38.7657 41.475 38.7657 41.6116C38.7657 45.6422 38.7657 49.6729 38.7657 53.6352C38.7657 53.7718 38.7657 53.8401 38.9024 53.7718C39.244 53.7035 39.6539 53.6352 39.9954 53.5669C40.542 53.4302 41.0202 53.2936 41.5667 53.0886C41.9083 53.0203 42.2498 52.8154 42.5914 52.6788C43.0696 52.4738 43.4795 52.2689 43.9577 52.0639C44.2993 51.9273 44.6409 51.7223 44.9825 51.5174C45.3924 51.3124 45.8023 51.0392 46.2122 50.7659C46.4854 50.561 46.7587 50.356 47.0319 50.0828C47.1686 49.9461 47.3735 49.8095 47.5102 49.6729C47.5102 49.6729 47.5785 49.6046 47.6468 49.6046C47.3052 49.9461 46.8953 50.2194 46.4854 50.561C44.2993 52.1322 41.8399 53.2253 39.1756 53.7035C39.039 53.7035 38.9024 53.7718 38.7657 53.7718C38.6974 53.7718 38.6291 53.7718 38.6291 53.7035V53.6352C38.6291 49.6046 38.6291 45.5056 38.6291 41.475C38.6291 41.3384 38.6974 41.3384 38.7657 41.3384C40.0637 41.3384 41.2934 41.3384 42.5914 41.3384C42.728 41.3384 42.7964 41.3384 42.7964 41.1334C43.0696 39.4938 43.2746 37.9226 43.5478 36.283C43.5478 36.1464 43.5478 36.0781 43.4112 36.0781C41.9766 36.0781 40.5419 36.0781 39.1073 36.0781C39.039 36.0781 39.039 36.0781 38.9707 36.0781C38.6291 36.0781 38.6291 36.0781 38.6291 35.7365C38.6291 34.6434 38.6291 33.5504 38.6291 32.5256C38.6291 31.7742 38.9024 31.091 39.5172 30.5445C40.0637 30.3395 40.4736 30.1346 41.0202 30.0663Z" fill="#4581CD"/>
<path d="M29.9528 53.0886C30.1578 53.0886 30.3627 53.2252 30.5677 53.2935C31.1825 53.4985 31.729 53.6351 32.3439 53.7717C32.5488 53.84 32.7538 53.84 32.8904 53.84C32.9587 53.84 33.027 53.84 33.027 53.7034C33.027 53.5668 33.027 53.4985 33.027 53.3618C33.027 49.4678 33.027 45.5055 33.027 41.6115C33.027 41.4066 33.0271 41.4066 32.8221 41.4066C31.4558 41.4066 30.0895 41.4066 28.7232 41.4066C28.5182 41.4066 28.5182 41.4066 28.5182 41.2016C28.5182 39.6304 28.5182 37.9908 28.5182 36.4196C28.5182 36.2146 28.5182 36.2146 28.7232 36.2146C30.0212 36.2146 31.2508 36.2146 32.5488 36.2146C32.6855 36.2146 32.7538 36.2146 32.8904 36.2146C33.0954 36.2146 33.0954 36.1463 33.0954 36.0097C33.0954 34.6433 33.0954 33.277 33.0954 31.9107C33.0954 31.5008 33.1637 31.0226 33.232 30.6127C33.3003 30.0662 33.5053 29.4514 33.7102 28.9731C33.8468 28.6999 33.9835 28.4266 34.1201 28.1534C34.2567 27.8801 34.4617 27.6752 34.5983 27.4019C34.6666 27.3336 34.7349 27.2653 34.8033 27.2653C34.7349 27.3336 34.6666 27.4019 34.5983 27.5385C33.8468 28.4949 33.4369 29.588 33.232 30.7494C33.1637 31.2959 33.0954 31.8424 33.0954 32.3206C33.0954 33.5503 33.0954 34.8483 33.0954 36.078C33.0954 36.2146 33.0271 36.2146 32.9587 36.2146C31.5924 36.2146 30.1578 36.2146 28.7915 36.2146C28.5865 36.2146 28.5865 36.2146 28.5865 36.4196C28.5865 37.9908 28.5865 39.6304 28.5865 41.2016C28.5865 41.3383 28.6548 41.4066 28.7915 41.4066C30.1578 41.4066 31.5924 41.4066 32.9587 41.4066C33.0954 41.4066 33.1637 41.4066 33.1637 41.5432C33.1637 45.6422 33.1637 49.6728 33.1637 53.7717C33.1637 53.9767 33.1637 53.9084 32.9587 53.9084C32.0023 53.7717 31.0459 53.4985 30.1578 53.2252C30.0895 53.1569 30.0212 53.1569 29.9528 53.0886Z" fill="#4581CD"/>
<path d="M25.1708 21.8684C25.1708 21.9367 25.1025 22.005 25.0342 22.005C24.2827 22.5516 23.5995 23.2347 22.9847 23.8496C22.6431 24.1911 22.3699 24.5327 22.0966 24.8743C21.8233 25.2159 21.5501 25.5575 21.3451 25.899C20.9352 26.4456 20.5937 27.0604 20.2521 27.6069C19.9105 28.2218 19.6372 28.8366 19.4323 29.4514C19.2273 29.9297 19.0907 30.4079 18.9541 30.8861C18.8175 31.3643 18.6808 31.8425 18.5442 32.389C18.4076 32.9355 18.3392 33.4821 18.2709 34.0286C18.1343 34.9167 18.1343 35.7365 18.1343 36.6246C18.1343 37.2394 18.2026 37.8543 18.2709 38.4691C18.3392 38.8107 18.4076 39.2206 18.4076 39.5622C18.4759 39.9721 18.6125 40.3819 18.6808 40.7918C18.8858 41.475 19.0907 42.2265 19.364 42.9096C19.5006 43.3195 19.7055 43.7294 19.9105 44.1393C20.1838 44.6175 20.3887 45.0957 20.7303 45.5739C20.9352 45.9155 21.1402 46.1888 21.3451 46.5303C21.6184 46.8719 21.8233 47.2135 22.0966 47.5551C22.3015 47.76 22.4382 47.965 22.6431 48.1699C22.7114 48.2382 22.7798 48.2382 22.7114 48.3066C22.5065 48.1016 22.3015 47.8967 22.0966 47.6234C21.0035 46.3254 20.1838 44.8908 19.5006 43.3878C18.7491 41.6116 18.2709 39.7671 18.066 37.786C17.9293 36.0097 17.9977 34.3019 18.3392 32.5256C18.7491 30.6128 19.4323 28.8366 20.3887 27.1287C21.1402 25.899 21.96 24.7377 22.9847 23.7129C23.5995 23.0298 24.2827 22.4832 25.0342 21.9367C25.1025 21.9367 25.1025 21.9367 25.1708 21.8684Z" fill="#4581CD"/>
<path d="M41.4982 25.3526C41.6348 25.2843 41.7714 25.3526 41.9081 25.3526C42.3863 25.4209 42.8645 25.4892 43.3427 25.5575C43.5476 25.5575 43.6843 25.6258 43.8892 25.6258C43.9575 25.6258 44.0259 25.6941 44.0259 25.7625C44.0259 25.8308 44.0259 25.8308 44.0259 25.8991C44.0259 27.2654 44.0259 28.6317 44.0259 29.9297C44.0259 30.1347 44.0259 30.1347 43.8209 30.1347C43.1378 30.1347 42.3863 30.1347 41.7031 30.1347C41.4982 30.1347 41.3615 30.203 41.1566 30.1347C41.3615 30.0663 41.6348 30.0663 41.8397 30.0663C42.5229 30.0663 43.1378 30.0663 43.8209 30.0663C43.9575 30.0663 43.9575 29.998 43.9575 29.9297C43.9575 28.5634 43.9575 27.1971 43.9575 25.8308C43.9575 25.6941 43.8892 25.6941 43.8209 25.6258C43.1378 25.4892 42.3863 25.4209 41.7031 25.3526C41.6348 25.3526 41.5665 25.3526 41.4982 25.3526Z" fill="#4581CD"/>
<path d="M22.7114 48.3067C22.9163 48.375 22.9846 48.5116 23.1213 48.6483C23.1896 48.7166 23.3262 48.8532 23.3945 48.9215C23.8044 49.3314 24.2826 49.7413 24.6925 50.0829C25.1024 50.4245 25.5806 50.7661 25.9905 51.0393C26.4687 51.3809 26.9469 51.6542 27.4251 51.9274C27.5618 51.9957 27.6301 52.0641 27.7667 52.1324C27.835 52.1324 27.9033 52.2007 27.9033 52.269C27.6301 52.2007 27.3568 51.9957 27.0836 51.8591C25.8539 51.176 24.6925 50.3562 23.6678 49.3314C23.3262 48.9899 22.9846 48.7166 22.7114 48.375C22.7797 48.375 22.7797 48.375 22.7114 48.3067Z" fill="#4581CD"/>
<path d="M34.8034 27.2654C34.8717 27.0604 35.0083 26.9921 35.145 26.8555C35.4865 26.5139 35.8281 26.3089 36.238 26.104C36.7162 25.8307 37.2627 25.6258 37.7409 25.4892C38.2191 25.3525 38.629 25.2842 39.1073 25.2842C39.3122 25.2842 39.5171 25.2159 39.7904 25.2842C39.4488 25.2842 39.1073 25.3525 38.6974 25.3525C37.536 25.4892 36.443 25.899 35.4865 26.6505C35.2816 26.8555 35.0766 27.0604 34.8034 27.2654Z" fill="#4581CD"/>
<path d="M28.0402 52.2689C28.2451 52.2689 28.3818 52.4055 28.5184 52.4738C28.7917 52.6104 29.0649 52.6788 29.3382 52.8154C29.5431 52.8837 29.7481 52.952 29.953 53.0886C29.953 53.0886 29.953 53.0886 29.953 53.157C29.7481 53.0886 29.4748 53.0203 29.2699 52.8837C28.86 52.7471 28.5184 52.5421 28.1085 52.4055C28.1085 52.3372 28.0402 52.3372 28.0402 52.2689Z" fill="#4581CD"/>
<path d="M40.1319 25.2842C40.2002 25.2159 40.2685 25.2842 40.3368 25.2842C40.6784 25.2842 40.9517 25.2842 41.2932 25.2842C41.3616 25.2842 41.3616 25.2842 41.3616 25.3525C41.1566 25.3525 41.02 25.3525 40.815 25.3525C40.6101 25.2842 40.3368 25.2842 40.1319 25.2842Z" fill="#4581CD"/>
<path d="M47.715 49.7413C47.8516 49.5363 47.9882 49.3997 48.1932 49.2631C48.0566 49.468 47.9199 49.6046 47.715 49.7413Z" fill="#4581CD"/>
</svg>
