<svg width="72" height="72" viewBox="0 0 72 72" fill="none" xmlns="http://www.w3.org/2000/svg">
<rect x="1.5" y="1.5" width="69" height="69" rx="34.5" stroke="#1B2E4C" stroke-width="3"/>
<path d="M20.0464 27.8052C20.1863 27.3156 20.4661 26.8958 20.7459 26.4761C22.5648 23.538 25.0132 21.2295 28.0912 19.6904C30.6096 18.4312 33.2679 17.7317 36.0661 17.6617C37.9549 17.6617 39.8437 17.8017 41.7325 18.3613C44.3208 19.1308 46.5594 20.4599 48.5881 22.2088C48.728 22.3487 48.728 22.4187 48.5881 22.5586C46.9791 24.1676 45.3701 25.7066 43.7612 27.3155C43.6213 27.4555 43.5513 27.4555 43.4114 27.3155C41.9423 25.9864 40.2634 25.2169 38.3746 24.8671C35.2966 24.3774 32.4284 25.007 29.9101 26.8958C28.0912 28.2949 26.832 30.0438 26.0625 32.2124C26.0625 32.2124 26.0625 32.2824 25.9926 32.2824C25.1531 31.5828 24.3136 30.9532 23.4042 30.2537C22.5648 29.6241 21.7953 28.9945 20.9558 28.3649C20.606 28.225 20.3262 27.9451 20.0464 27.8052Z" fill="#EA4436"/>
<path d="M48.5181 49.841C48.1684 50.1908 47.8186 50.5406 47.3988 50.8204C44.8805 52.7791 42.0823 53.8285 38.9343 54.1782C35.0168 54.6679 31.3791 54.0383 27.8814 52.2195C25.9226 51.1702 24.2437 49.841 22.7746 48.232C21.7253 47.0428 20.8159 45.7836 20.1163 44.3845C20.1163 44.3146 20.0464 44.2446 20.0464 44.1746C20.1163 44.1746 20.1163 44.1047 20.1863 44.1047C20.9558 43.5451 21.7253 42.9155 22.4948 42.3558C23.6841 41.4464 24.8033 40.537 25.9926 39.6276C26.2724 40.3271 26.5522 40.9567 26.902 41.5863C28.0213 43.5451 29.5603 45.0141 31.519 46.0634C33.6177 47.1827 35.8562 47.4625 38.1648 47.1827C39.8437 46.9729 41.3827 46.4132 42.7818 45.5038H42.8518C42.9217 45.5738 42.9917 45.6437 43.0616 45.7137C43.8311 46.2733 44.6006 46.9029 45.3701 47.4625C46.0697 48.0222 46.8392 48.5818 47.5388 49.1415C47.8186 49.3513 48.1684 49.6312 48.5181 49.841Z" fill="#35A753"/>
<path d="M48.5184 49.841C48.1686 49.6312 47.8189 49.2814 47.4691 49.0016C46.7695 48.4419 46 47.8823 45.3005 47.3227C44.531 46.763 43.7615 46.1334 42.992 45.5738C42.922 45.5038 42.852 45.4339 42.7821 45.3639C43.3417 44.9442 43.9014 44.4545 44.3911 43.9648C45.5103 42.7056 46.2099 41.3065 46.4897 39.6276C46.4897 39.4877 46.4897 39.4177 46.3498 39.4877C46.2798 39.4877 46.2798 39.4877 46.2099 39.4877C43.0619 39.4877 39.844 39.4877 36.696 39.4877C36.4861 39.4877 36.4162 39.4177 36.4162 39.2079C36.4162 37.1092 36.4162 35.0106 36.4162 32.9119C36.4162 32.702 36.4861 32.6321 36.696 32.6321C42.2924 32.6321 47.8189 32.6321 53.4153 32.6321C53.6251 32.6321 53.6951 32.702 53.6951 32.9119C53.9749 34.381 54.0449 35.85 53.9749 37.3191C53.905 38.7182 53.765 40.0473 53.4153 41.3765C52.7857 44.0348 51.5964 46.4832 49.7776 48.5819C49.4278 49.0715 49.0081 49.4913 48.5184 49.841Z" fill="#4286F3"/>
<path d="M25.9228 39.6277C24.7335 40.5371 23.6142 41.4465 22.425 42.3559C21.6555 42.9155 20.886 43.5451 20.1165 44.1048C20.1165 44.1048 20.0465 44.1747 19.9766 44.1747C19.6967 43.825 19.5568 43.4052 19.4169 42.9855C18.5775 41.0268 18.1577 38.9981 18.0178 36.8994C17.9479 35.3604 18.0878 33.7514 18.3676 32.2124C18.6474 30.8133 19.1371 29.4142 19.7667 28.0851C19.8367 27.9451 19.9066 27.8752 19.9066 27.8052C20.2564 28.0151 20.5362 28.225 20.816 28.5048C21.6555 29.1344 22.425 29.764 23.2645 30.3936C24.1039 31.0232 24.9434 31.7227 25.8528 32.4223C25.7129 33.0519 25.503 33.6815 25.4331 34.3111C25.2232 35.7102 25.2232 37.0393 25.573 38.4384C25.7129 38.7882 25.8528 39.2079 25.9228 39.6277Z" fill="#F9BB07"/>
</svg>
