<svg width="72" height="72" viewBox="0 0 72 72" fill="none" xmlns="http://www.w3.org/2000/svg">
<rect x="1.5" y="1.5" width="69" height="69" rx="34.5" stroke="#1B2E4C" stroke-width="3"/>
<path d="M36.0337 53.9991C26.0841 53.9991 18 45.9151 18 35.8964C18 26.1541 25.8768 18.0009 36.0337 18.0009C46.1905 18.0009 54.1364 26.2232 53.9982 36.1728C53.9291 45.9151 45.9833 53.93 36.0337 53.9991ZM37.1392 33.3399C37.1392 33.2708 37.1392 33.2708 37.1392 33.2017C37.0701 32.5798 37.001 31.958 36.9319 31.3362C36.9319 31.2671 36.9319 31.198 36.7937 31.198C35.4809 31.198 34.2372 31.198 32.9244 31.198C32.7862 31.198 32.7862 31.2671 32.7862 31.3362C32.7862 31.6125 32.7862 31.8198 32.7862 32.0962C32.7862 34.3072 32.7862 36.5182 32.8553 38.7293C32.8553 41.2858 32.8553 43.8422 32.8553 46.4678C32.8553 46.6751 32.9244 46.6751 33.0626 46.6751C34.5136 46.6751 35.9646 46.6751 37.4846 46.6751C37.6919 46.6751 37.6919 46.606 37.6919 46.4678C37.6919 44.0495 37.6919 41.5621 37.6919 39.1438C37.6919 38.522 37.6919 37.9001 37.761 37.2783C37.8301 36.38 38.2447 35.6891 38.9356 35.1363C39.4884 34.7909 40.0411 34.7218 40.663 34.7909C41.2848 34.86 41.7685 35.1363 42.114 35.62C42.5285 36.1728 42.6667 36.7255 42.6667 37.4165C42.6667 38.6602 42.6667 39.8348 42.7358 41.0785C42.7358 42.8749 42.7358 44.6714 42.7358 46.4678C42.7358 46.606 42.8049 46.6751 42.9431 46.6751C44.3941 46.6751 45.8451 46.6751 47.2961 46.6751C47.5033 46.6751 47.5033 46.606 47.5033 46.4678C47.5033 44.6023 47.5033 42.8058 47.5033 40.9403C47.5033 39.6966 47.5033 38.4529 47.5033 37.2092C47.5033 36.2419 47.3652 35.3436 47.0197 34.4454C46.6051 33.1326 45.8451 32.0962 44.6014 31.4743C43.3577 30.7834 41.9758 30.7834 40.663 30.9907C39.2811 31.198 38.1756 31.958 37.3465 33.1326C37.2774 33.2017 37.2083 33.2708 37.1392 33.3399ZM29.9533 38.9365C29.9533 36.4491 29.9533 33.8926 29.9533 31.4052C29.9533 31.198 29.8842 31.198 29.7461 31.198C28.2951 31.198 26.8441 31.198 25.324 31.198C25.1858 31.198 25.1167 31.2671 25.1167 31.4052C25.1167 36.4491 25.1167 41.4239 25.1167 46.4678C25.1167 46.606 25.1858 46.6751 25.324 46.6751C26.775 46.6751 28.226 46.6751 29.677 46.6751C29.8842 46.6751 29.8843 46.606 29.8843 46.4678C29.9534 43.9113 29.9533 41.4239 29.9533 38.9365ZM30.0915 26.9141C30.0915 25.7395 29.3315 24.7722 28.1569 24.5649C27.8114 24.4958 27.466 24.4958 27.1205 24.5649C25.324 24.7722 24.3567 26.7759 25.3931 28.296C26.0841 29.2633 27.3968 29.6088 28.5714 29.1251C29.5388 28.7106 30.0915 27.8814 30.0915 26.9141Z" fill="#017BB5"/>
</svg>
